#N canvas 0 22 914 767 24;
#X declare -lib mrpeach;
#X obj 39 682 dac~;
#X msg 243 612 \; pd dsp 0;
#X msg 244 556 \; pd dsp 1;
#X obj 79 593 line~;
#X msg 79 557 \$1 50;
#X obj 133 263 cnv 15 550 75 empty empty empty 20 12 0 14 -101905 -66577
0;
#X floatatom 39 148 5 0 0 0 - - -;
#X floatatom 171 115 5 0 0 0 - - -;
#X obj 171 153 osc~;
#X obj 171 209 *~;
#X floatatom 427 161 5 0 0 0 - - -;
#X text 183 85 Frequency;
#X text 421 58 Modulation;
#X text 420 82 Amplitude;
#X text 20 107 Frequency;
#X obj 79 374 vsl 25 128 0 127 0 0 empty empty empty 0 -8 0 8 -262144
-1 -1 0 1;
#X obj 79 522 / 127;
#X text 111 451 Level;
#X text 23 84 Carrier;
#X obj 39 306 osc~;
#X obj 39 260 +~;
#X text 182 59 Modulation;
#X text 143 264 oscillate at a frequency of;
#X text 147 294 f_c + modulator signal;
#X text 419 105 (Index);
#X obj 39 195 sig~;
#X obj 604 44 import mrpeach;
#X obj 606 113 unpackOSC;
#X obj 243 502 loadbang;
#X obj 40 631 *~ 0.8;
#X obj 605 157 route /x /y;
#X obj 651 199 / 3;
#X obj 726 262 + 50;
#X obj 752 347 mtof;
#X obj 604 80 udpreceive 3333;
#X obj 736 222 mtof;
#X obj 827 243 mtof;
#X obj 863 348 * 4;
#X connect 3 0 29 1;
#X connect 4 0 3 0;
#X connect 6 0 25 0;
#X connect 7 0 8 0;
#X connect 8 0 9 0;
#X connect 9 0 20 1;
#X connect 10 0 9 1;
#X connect 15 0 16 0;
#X connect 16 0 4 0;
#X connect 19 0 29 0;
#X connect 20 0 19 0;
#X connect 25 0 20 0;
#X connect 27 0 30 0;
#X connect 28 0 2 0;
#X connect 29 0 0 0;
#X connect 29 0 0 1;
#X connect 30 0 31 0;
#X connect 30 1 35 0;
#X connect 30 1 36 0;
#X connect 31 0 32 0;
#X connect 32 0 33 0;
#X connect 33 0 6 0;
#X connect 34 0 27 0;
#X connect 35 0 7 0;
#X connect 36 0 37 0;
#X connect 37 0 10 0;
